# Blender v2.74 (sub 0) OBJ File: ''
# www.blender.org
mtllib cube.mtl
o Box
v 5.000000 5.000000 5.000000
v 5.000000 5.000000 -5.000000
v 5.000000 -5.000000 5.000000
v 5.000000 -5.000000 -5.000000
v -5.000000 5.000000 -5.000000
v -5.000000 5.000000 5.000000
v -5.000000 -5.000000 -5.000000
v -5.000000 -5.000000 5.000000
vt 0.000000 1.000000
vt 0.000000 0.000000
vt 1.000000 0.000000
vt 1.000000 1.000000
vn 0.577300 0.577300 0.577300
vn 0.577300 -0.577300 0.577300
vn 0.577300 -0.577300 -0.577300
vn 0.577300 0.577300 -0.577300
vn -0.577300 0.577300 -0.577300
vn -0.577300 -0.577300 -0.577300
vn -0.577300 -0.577300 0.577300
vn -0.577300 0.577300 0.577300
usemtl b0b0b0
s 1
f 1/1/1 3/2/2 4/3/3
f 1/1/1 4/3/3 2/4/4
f 5/4/5 7/3/6 8/2/7
f 5/4/5 8/2/7 6/1/8
f 5/4/5 6/1/8 1/1/1
f 5/4/5 1/1/1 2/4/4
f 8/2/7 7/3/6 4/3/3
f 8/2/7 4/3/3 3/2/2
f 6/1/8 8/2/7 3/2/2
f 6/1/8 3/2/2 1/1/1
f 2/4/4 4/3/3 7/3/6
f 2/4/4 7/3/6 5/4/5
