# Blender v2.74 (sub 0) OBJ File: ''
# www.blender.org
mtllib sphere.mtl
o HemiSpheres5
v 0.000000 5.000000 -0.000000
v 2.938900 4.045100 -0.000000
v 4.755300 1.545100 -0.000000
v 4.755300 -1.545100 0.000000
v 2.938900 -4.045100 0.000000
v 0.000000 -5.000000 0.000000
v 0.908200 4.045100 2.795100
v 1.469500 1.545100 4.522500
v 1.469500 -1.545100 4.522500
v 0.908200 -4.045100 2.795100
v -2.377600 4.045100 1.727500
v -3.847100 1.545100 2.795100
v -3.847100 -1.545100 2.795100
v -2.377600 -4.045100 1.727500
v -2.377600 4.045100 -1.727500
v -3.847100 1.545100 -2.795100
v -3.847100 -1.545100 -2.795100
v -2.377600 -4.045100 -1.727500
v 0.908200 4.045100 -2.795100
v 1.469500 1.545100 -4.522500
v 1.469500 -1.545100 -4.522500
v 0.908200 -4.045100 -2.795100
vt 0.483259 0.500000
vt 0.520653 0.293641
vt 0.598693 0.500000
vt 0.603827 0.118055
vt 0.702299 0.500000
vt 0.797701 0.500000
vt 0.896173 0.118055
vt 0.979347 0.293641
vt 0.901307 0.500000
vt 1.016741 0.500000
vt 0.391285 0.388258
vt 0.297701 0.330214
vt 1.202299 0.330214
vt 1.108715 0.388258
vt 0.391285 0.611742
vt 0.297701 0.669786
vt 0.202299 0.330214
vt 0.202299 0.669786
vt 0.108715 0.611742
vt 0.108715 0.388258
vt 0.016741 0.500000
vt 0.520653 0.706359
vt 0.603827 0.881945
vt 1.202299 0.669786
vt 0.896173 0.881945
vt 0.979347 0.706359
vt 1.108715 0.611742
vn 0.000000 1.000000 0.000000
vn 0.202800 0.754600 0.624000
vn 0.656100 0.754600 0.000000
vn 0.250000 0.587800 0.769400
vn 0.809000 0.587800 0.000000
vn 0.809000 -0.587800 0.000000
vn 0.250000 -0.587800 0.769400
vn 0.202800 -0.754600 0.624000
vn 0.656100 -0.754600 0.000000
vn 0.000000 -1.000000 0.000000
vn -0.530800 0.754600 0.385700
vn -0.654500 0.587800 0.475500
vn -0.654500 -0.587800 0.475500
vn -0.530800 -0.754600 0.385700
vn -0.530800 0.754600 -0.385700
vn -0.654500 0.587800 -0.475500
vn -0.654500 -0.587800 -0.475500
vn -0.530800 -0.754600 -0.385700
vn 0.202800 0.754600 -0.624000
vn 0.250000 0.587800 -0.769400
vn 0.250000 -0.587800 -0.769400
vn 0.202800 -0.754600 -0.624000
usemtl SphereMat
s 1
f 1/1/1 7/2/2 2/3/3
f 2/3/3 7/2/2 8/4/4
f 2/3/3 8/4/4 3/5/5
f 4/6/6 9/7/7 10/8/8
f 4/6/6 10/8/8 5/9/9
f 5/9/9 10/8/8 6/10/10
f 1/1/1 11/11/11 7/2/2
f 7/2/2 11/11/11 12/12/12
f 7/2/2 12/12/12 8/4/4
f 9/7/7 13/13/13 14/14/14
f 9/7/7 14/14/14 10/8/8
f 10/8/8 14/14/14 6/10/10
f 1/1/1 15/15/15 11/11/11
f 11/11/11 15/15/15 16/16/16
f 11/11/11 16/16/16 12/12/12
f 13/17/13 17/18/17 18/19/18
f 13/17/13 18/19/18 14/20/14
f 14/20/14 18/19/18 6/21/10
f 1/1/1 19/22/19 15/15/15
f 15/15/15 19/22/19 20/23/20
f 15/15/15 20/23/20 16/16/16
f 17/24/17 21/25/21 22/26/22
f 17/24/17 22/26/22 18/27/18
f 18/27/18 22/26/22 6/10/10
f 1/1/1 2/3/3 19/22/19
f 19/22/19 2/3/3 3/5/5
f 19/22/19 3/5/5 20/23/20
f 21/25/21 4/6/6 5/9/9
f 21/25/21 5/9/9 22/26/22
f 22/26/22 5/9/9 6/10/10
