# Blender v2.74 (sub 0) OBJ File: ''
# www.blender.org
mtllib sphere.mtl
o Sphere5
v -0.763200 5.000000 -0.000000
v 2.175700 4.045100 -0.000000
v 3.992100 1.545100 -0.000000
v 3.992100 -1.545100 0.000000
v 2.175700 -4.045100 0.000000
v -0.763200 -5.000000 0.000000
v 0.145000 4.045100 2.795100
v 0.706300 1.545100 4.522500
v 0.706300 -1.545100 4.522500
v 0.145000 -4.045100 2.795100
v -3.140800 4.045100 1.727500
v -4.610300 1.545100 2.795100
v -4.610300 -1.545100 2.795100
v -3.140800 -4.045100 1.727500
v -3.140800 4.045100 -1.727500
v -4.610300 1.545100 -2.795100
v -4.610300 -1.545100 -2.795100
v -3.140800 -4.045100 -1.727500
v 0.145000 4.045100 -2.795100
v 0.706300 1.545100 -4.522500
v 0.706300 -1.545100 -4.522500
v 0.145000 -4.045100 -2.795100
vt 0.483259 0.500000
vt 0.520653 0.293641
vt 0.598693 0.500000
vt 0.603827 0.118055
vt 0.702299 0.500000
vt 0.896173 0.118055
vt 0.797701 0.500000
vt 0.979347 0.293641
vt 0.901307 0.500000
vt 1.016741 0.500000
vt 0.391285 0.388258
vt 0.297701 0.330214
vt 1.202299 0.330214
vt 1.108715 0.388258
vt 0.391285 0.611742
vt 0.297701 0.669786
vt 0.202299 0.669786
vt 0.202299 0.330214
vt 0.108715 0.611742
vt 0.108715 0.388258
vt 0.016741 0.500000
vt 0.520653 0.706359
vt 0.603827 0.881945
vt 1.297701 0.669786
vt 0.896173 0.881945
vt 1.202299 0.669786
vt 0.979347 0.706359
vt 1.108715 0.611742
vn 0.000000 1.000000 0.000000
vn 0.202800 0.754600 0.624000
vn 0.656100 0.754600 0.000000
vn 0.296700 0.279500 0.913100
vn 0.960100 0.279500 0.000000
vn 0.296700 -0.279500 0.913100
vn 0.960100 -0.279500 0.000000
vn 0.202800 -0.754600 0.624000
vn 0.656100 -0.754600 0.000000
vn 0.000000 -1.000000 0.000000
vn -0.530800 0.754600 0.385700
vn -0.776800 0.279500 0.564300
vn -0.776800 -0.279500 0.564300
vn -0.530800 -0.754600 0.385700
vn -0.530800 0.754600 -0.385700
vn -0.776800 0.279500 -0.564300
vn -0.776800 -0.279500 -0.564300
vn -0.530800 -0.754600 -0.385700
vn 0.202800 0.754600 -0.624000
vn 0.296700 0.279500 -0.913100
vn 0.296700 -0.279500 -0.913100
vn 0.202800 -0.754600 -0.624000
usemtl b0b0b0
s 1
f 1/1/1 7/2/2 2/3/3
f 2/3/3 7/2/2 8/4/4
f 2/3/3 8/4/4 3/5/5
f 3/5/5 8/4/4 9/6/6
f 3/5/5 9/6/6 4/7/7
f 4/7/7 9/6/6 10/8/8
f 4/7/7 10/8/8 5/9/9
f 5/9/9 10/8/8 6/10/10
f 1/1/1 11/11/11 7/2/2
f 7/2/2 11/11/11 12/12/12
f 7/2/2 12/12/12 8/4/4
f 8/4/4 12/12/12 13/13/13
f 8/4/4 13/13/13 9/6/6
f 9/6/6 13/13/13 14/14/14
f 9/6/6 14/14/14 10/8/8
f 10/8/8 14/14/14 6/10/10
f 1/1/1 15/15/15 11/11/11
f 11/11/11 15/15/15 16/16/16
f 11/11/11 16/16/16 12/12/12
f 12/12/12 16/16/16 17/17/17
f 12/12/12 17/17/17 13/18/13
f 13/18/13 17/17/17 18/19/18
f 13/18/13 18/19/18 14/20/14
f 14/20/14 18/19/18 6/21/10
f 1/1/1 19/22/19 15/15/15
f 15/15/15 19/22/19 20/23/20
f 15/15/15 20/23/20 16/16/16
f 16/24/16 20/23/20 21/25/21
f 16/24/16 21/25/21 17/26/17
f 17/26/17 21/25/21 22/27/22
f 17/26/17 22/27/22 18/28/18
f 18/28/18 22/27/22 6/10/10
f 1/1/1 2/3/3 19/22/19
f 19/22/19 2/3/3 3/5/5
f 19/22/19 3/5/5 20/23/20
f 20/23/20 3/5/5 4/7/7
f 20/23/20 4/7/7 21/25/21
f 21/25/21 4/7/7 5/9/9
f 21/25/21 5/9/9 22/27/22
f 22/27/22 5/9/9 6/10/10
