# Blender v2.74 (sub 0) OBJ File: ''
# www.blender.org
mtllib tetrahedron.mtl
o Tetrahedron1
v 5.196152 5.196152 5.196152
v -5.196152 -5.196152 5.196152
v -5.196152 5.196152 -5.196152
v 5.196152 -5.196152 -5.196152
vt 0.999957 0.000043
vt 0.000043 0.999957
vt 0.999957 0.999957
vt 0.000043 0.000043
vn -0.577300 -0.577300 0.577300
vn 0.577300 0.577300 0.577300
vn -0.577300 0.577300 -0.577300
vn 0.577300 -0.577300 -0.577300
usemtl b0b0b0
s 1
f 2/1/1 1/2/2 3/3/3
f 4/4/4 3/3/3 1/2/2
f 4/4/4 1/2/2 2/1/1
f 4/4/4 2/1/1 3/3/3
